<svg width="49" height="50" viewBox="0 0 49 50" fill="none" xmlns="http://www.w3.org/2000/svg">
<path id="Vector" d="M35.3889 0.0429688C38.9988 0.0429688 42.4608 1.47699 45.0134 4.02957C47.566 6.58215 49 10.0442 49 13.6541V35.4319C49 39.0417 47.566 42.5038 45.0134 45.0564C42.4608 47.6089 38.9988 49.043 35.3889 49.043H13.6111C10.0012 49.043 6.53918 47.6089 3.9866 45.0564C1.43402 42.5038 0 39.0417 0 35.4319V13.6541C0 10.0442 1.43402 6.58215 3.9866 4.02957C6.53918 1.47699 10.0012 0.0429688 13.6111 0.0429688H35.3889ZM24.5 13.6541C21.6121 13.6541 18.8425 14.8013 16.8004 16.8434C14.7583 18.8854 13.6111 21.6551 13.6111 24.543C13.6111 27.4309 14.7583 30.2005 16.8004 32.2426C18.8425 34.2846 21.6121 35.4319 24.5 35.4319C27.3879 35.4319 30.1575 34.2846 32.1996 32.2426C34.2417 30.2005 35.3889 27.4309 35.3889 24.543C35.3889 21.6551 34.2417 18.8854 32.1996 16.8434C30.1575 14.8013 27.3879 13.6541 24.5 13.6541ZM24.5 19.0985C25.944 19.0985 27.3288 19.6721 28.3498 20.6932C29.3708 21.7142 29.9444 23.099 29.9444 24.543C29.9444 25.9869 29.3708 27.3717 28.3498 28.3928C27.3288 29.4138 25.944 29.9874 24.5 29.9874C23.056 29.9874 21.6712 29.4138 20.6502 28.3928C19.6292 27.3717 19.0556 25.9869 19.0556 24.543C19.0556 23.099 19.6292 21.7142 20.6502 20.6932C21.6712 19.6721 23.056 19.0985 24.5 19.0985ZM36.75 9.57075C36.028 9.57075 35.3356 9.85755 34.8251 10.3681C34.3146 10.8786 34.0278 11.571 34.0278 12.293C34.0278 13.0149 34.3146 13.7074 34.8251 14.2179C35.3356 14.7284 36.028 15.0152 36.75 15.0152C37.472 15.0152 38.1644 14.7284 38.6749 14.2179C39.1854 13.7074 39.4722 13.0149 39.4722 12.293C39.4722 11.571 39.1854 10.8786 38.6749 10.3681C38.1644 9.85755 37.472 9.57075 36.75 9.57075Z" fill="#83A5F2"/>
</svg>
