<svg width="61" height="62" viewBox="0 0 61 62" fill="none" xmlns="http://www.w3.org/2000/svg">
<g id="mage:linkedin">
<path id="Vector" d="M43.9789 5.76172H17.022C14.0243 5.76172 11.1494 6.95255 9.02975 9.07223C6.91006 11.1919 5.71924 14.0668 5.71924 17.0645V44.0214C5.71924 47.0191 6.91006 49.894 9.02975 52.0137C11.1494 54.1334 14.0243 55.3242 17.022 55.3242H43.9789C46.9766 55.3242 49.8515 54.1334 51.9712 52.0137C54.0909 49.894 55.2817 47.0191 55.2817 44.0214V17.0645C55.2817 14.0668 54.0909 11.1919 51.9712 9.07223C49.8515 6.95255 46.9766 5.76172 43.9789 5.76172ZM22.4764 45.7726C22.4844 45.911 22.464 46.0495 22.4165 46.1797C22.369 46.3098 22.2954 46.4289 22.2002 46.5296C22.1049 46.6303 21.9902 46.7105 21.8628 46.7652C21.7355 46.8199 21.5984 46.848 21.4598 46.8478H16.9356C16.6628 46.8411 16.4035 46.7277 16.2133 46.5319C16.0232 46.3361 15.9175 46.0735 15.9189 45.8006V26.9846C15.9152 26.8488 15.9387 26.7136 15.9882 26.587C16.0376 26.4604 16.1119 26.345 16.2067 26.2476C16.3014 26.1502 16.4148 26.0728 16.54 26.02C16.6652 25.9672 16.7997 25.94 16.9356 25.94H21.4598C21.5957 25.94 21.7302 25.9672 21.8554 26.02C21.9806 26.0728 22.094 26.1502 22.1887 26.2476C22.2835 26.345 22.3578 26.4604 22.4072 26.587C22.4566 26.7136 22.4802 26.8488 22.4764 26.9846V45.7726ZM19.1138 21.9826C18.624 21.979 18.1397 21.8789 17.6886 21.688C17.2375 21.4972 16.8283 21.2194 16.4846 20.8704C16.1408 20.5215 15.8692 20.1082 15.6851 19.6543C15.5011 19.2003 15.4082 18.7146 15.4119 18.2248C15.4156 17.735 15.5157 17.2507 15.7065 16.7995C15.8973 16.3484 16.1752 15.9393 16.5241 15.5955C16.8731 15.2518 17.2863 14.9801 17.7402 14.7961C18.1942 14.612 18.6799 14.5192 19.1697 14.5228C20.142 14.5545 21.0634 14.9648 21.7373 15.6662C22.4112 16.3677 22.7844 17.3047 22.7771 18.2775C22.7698 19.2502 22.3826 20.1815 21.6982 20.8728C21.0139 21.5641 20.0864 21.9605 19.1138 21.9776M46.607 45.7421C46.6058 45.999 46.505 46.2453 46.3258 46.4292C46.1466 46.6132 45.903 46.7204 45.6463 46.7283H40.8705C40.6134 46.7204 40.3694 46.6128 40.1901 46.4283C40.0108 46.2438 39.9103 45.9969 39.9097 45.7396V37.0369C39.9097 35.7381 40.3062 31.3868 36.4632 31.3868C33.4666 31.3868 32.8744 34.4368 32.76 35.7941V45.9378C32.7602 46.1955 32.6599 46.4432 32.4806 46.6282C32.3012 46.8132 32.0569 46.9212 31.7993 46.9291H27.1658C26.9034 46.9284 26.6519 46.8237 26.4665 46.6379C26.2812 46.452 26.1771 46.2003 26.1771 45.9378V26.8931C26.185 26.6356 26.293 26.3912 26.478 26.2119C26.6631 26.0325 26.9107 25.9323 27.1684 25.9324H31.7993C32.057 25.9323 32.3046 26.0325 32.4896 26.2119C32.6747 26.3912 32.7826 26.6356 32.7905 26.8931V28.5325C33.4667 27.5428 34.4002 26.7566 35.4904 26.2585C36.5807 25.7604 37.7862 25.5694 38.9769 25.7062C46.6909 25.7062 46.6629 32.9118 46.6629 37.009L46.607 45.7421Z" fill="#83A5F2"/>
</g>
</svg>
