<?xml version="1.0" encoding="utf-8"?>
<!-- Generator: Adobe Illustrator 25.2.0, SVG Export Plug-In . SVG Version: 6.00 Build 0)  -->
<svg version="1.1" id="Calque_1" xmlns="http://www.w3.org/2000/svg" xmlns:xlink="http://www.w3.org/1999/xlink" x="0px" y="0px"
	 viewBox="0 0 57 57" style="enable-background:new 0 0 57 57;" xml:space="preserve">
<style type="text/css">
	.st0{fill:#83A5F2;}
</style>
<g id="ic:baseline-tiktok">
	<path id="Vector" class="st0" d="M43,8.9c-2.1-2.5-3.4-5.7-3.4-8.9h-9.8v39.2c-0.1,2.1-1,4.2-2.5,5.7c-1.5,1.5-3.5,2.3-5.7,2.3
		c-4.5,0-8.2-3.7-8.2-8.2c0-5.4,5.3-9.6,10.7-7.8v-10c-11-1.5-20.5,7.1-20.5,17.9c0,10.6,8.7,18,18,18c10,0,18-8.1,18-18V19
		c4,2.9,8.7,4.4,13.6,4.4v-9.8C53.4,13.6,47.3,13.9,43,8.9z"/>
</g>
</svg>
