<?xml version="1.0" encoding="utf-8"?>
<!-- Generator: Adobe Illustrator 25.2.0, SVG Export Plug-In . SVG Version: 6.00 Build 0)  -->
<svg version="1.1" id="Calque_1" xmlns="http://www.w3.org/2000/svg" xmlns:xlink="http://www.w3.org/1999/xlink" x="0px" y="0px"
	 viewBox="0 0 57 57" style="enable-background:new 0 0 57 57;" xml:space="preserve">
<style type="text/css">
	.st0{fill:#83A5F2;}
</style>
<g id="ic:baseline-tiktok">
	<path id="Vector" class="st0" d="M40,13c-1.7-2-2.7-4.5-2.7-7.1h-7.8V37c-0.1,1.7-0.8,3.3-2,4.5c-1.2,1.2-2.8,1.8-4.5,1.8
		c-3.6,0-6.5-2.9-6.5-6.5c0-4.3,4.2-7.6,8.5-6.2v-7.9c-8.7-1.2-16.3,5.6-16.3,14.2c0,8.4,6.9,14.3,14.3,14.3
		c7.9,0,14.3-6.4,14.3-14.3V21c3.2,2.3,6.9,3.5,10.8,3.5v-7.8C48.2,16.7,43.4,16.9,40,13z"/>
</g>
</svg>
