<?xml version="1.0" encoding="utf-8"?>
<!-- Generator: Adobe Illustrator 25.2.0, SVG Export Plug-In . SVG Version: 6.00 Build 0)  -->
<svg version="1.1" id="Calque_1" xmlns="http://www.w3.org/2000/svg" xmlns:xlink="http://www.w3.org/1999/xlink" x="0px" y="0px"
	 viewBox="0 0 51 51" style="enable-background:new 0 0 51 51;" xml:space="preserve">
<style type="text/css">
	.st0{clip-path:url(#SVGID_2_);}
	.st1{fill-rule:evenodd;clip-rule:evenodd;fill:#FFDCD5;}
</style>
<g>
	<defs>
		<rect id="SVGID_1_" x="0.6" y="0.6" width="49.9" height="49.9"/>
	</defs>
	<clipPath id="SVGID_2_">
		<use xlink:href="#SVGID_1_"  style="overflow:visible;"/>
	</clipPath>
	<g class="st0">
		<path class="st1" d="M-1.1,4.6c-0.7,0-1.3,0.2-1.7,0.6c-0.5,0.4-0.7,0.9-0.7,1.5v29.2c0,2.8,2.2,5.2,5.2,6
			c0.4,1.3,1.4,2.4,2.6,3.2c1.2,0.8,2.7,1.2,4.3,1.3c1.6,0,3.1-0.4,4.3-1.1c1.3-0.7,2.2-1.8,2.8-3.1h15.6c0.5,1.2,1.5,2.3,2.8,3.1
			c1.3,0.7,2.8,1.1,4.3,1.1c1.6,0,3-0.5,4.3-1.3c1.2-0.8,2.1-1.9,2.6-3.2c1.5-0.4,2.8-1.2,3.8-2.3c0.9-1.1,1.4-2.4,1.4-3.7v-8.3
			c0-1.4-0.3-2.7-0.9-4c-0.6-1.3-1.5-2.4-2.7-3.4c-1.1-1-2.5-1.7-4-2.3c-1.5-0.5-3.1-0.8-4.7-0.8h-9.8V6.7c0-0.6-0.3-1.1-0.7-1.5
			c-0.5-0.4-1.1-0.6-1.7-0.6H-1.1z M31.2,38h-2.9V21.3h9.8c2,0,3.8,0.7,5.2,1.8c1.4,1.2,2.2,2.8,2.2,4.4v8.3c0,0.6-0.3,1.1-0.7,1.5
			c-0.6-1.1-1.6-2.1-2.9-2.7c-1.3-0.6-2.7-0.9-4.1-0.9c-1.5,0.1-2.9,0.5-4,1.2C32.6,35.8,31.7,36.9,31.2,38z M7,38.6
			c0.2-0.2,0.5-0.4,0.8-0.5C8.1,38.1,8.4,38,8.8,38c0.3,0,0.6,0.1,1,0.2c0.3,0.1,0.6,0.3,0.8,0.5c0.2,0.2,0.4,0.4,0.5,0.7
			c0.1,0.3,0.2,0.5,0.2,0.8c0,0.3-0.1,0.6-0.2,0.8c-0.1,0.3-0.3,0.5-0.5,0.7C10,42,9.4,42.2,8.8,42.2c-0.6,0-1.3-0.2-1.7-0.6
			c-0.5-0.4-0.7-0.9-0.7-1.5C6.3,39.6,6.6,39,7,38.6z M35.7,40.1c0-0.6,0.3-1.1,0.7-1.5c0.5-0.4,1.1-0.6,1.7-0.6s1.3,0.2,1.7,0.6
			s0.7,0.9,0.7,1.5c0,0.6-0.3,1.1-0.7,1.5s-1.1,0.6-1.7,0.6s-1.3-0.2-1.7-0.6C36,41.2,35.7,40.7,35.7,40.1z"/>
	</g>
</g>
</svg>
