<?xml version="1.0" encoding="utf-8"?>
<!-- Generator: Adobe Illustrator 25.2.0, SVG Export Plug-In . SVG Version: 6.00 Build 0)  -->
<svg version="1.1" id="Calque_1" xmlns="http://www.w3.org/2000/svg" xmlns:xlink="http://www.w3.org/1999/xlink" x="0px" y="0px"
	 viewBox="0 0 56 56" style="enable-background:new 0 0 56 56;" xml:space="preserve">
<style type="text/css">
	.st0{fill:#FFDCD5;}
</style>
<path class="st0" d="M52.3,35.6v-3.8c0-3.5-3.5-6.3-7.1-6.3c-3.5,0-7.1,2.8-7.1,6.3v3.8c-1.5,0-3,1.5-3,3v8.9c0,1.8,1.5,3.3,3,3.3
	h13.9c1.8,0,3.3-1.5,3.3-3v-8.9C55.4,37.1,53.9,35.6,52.3,35.6z M49,35.6h-7.6v-3.8c0-2,1.8-3.3,3.8-3.3c2,0,3.8,1.3,3.8,3.3V35.6z
	 M30.1,48.2H7.3c-1.3,0-2.6-0.5-3.6-1.5c-0.9-0.9-1.5-2.2-1.5-3.6V12.8c0-1.3,0.5-2.6,1.5-3.6C4.7,8.3,6,7.8,7.3,7.8h40.5
	c2.8,0,5.1,2.3,5.1,5.1V23c-1.5-1.1-3.2-2-5.1-2.4v-2.8H7.3v7.6h27.9c-1.4,1.8-2.1,4-2.1,6.3v0.6c-1.8,1.5-3,3.8-3,6.2v8.9
	C30.1,47.7,30.1,48,30.1,48.2z"/>
</svg>
