<?xml version="1.0" encoding="utf-8"?>
<!-- Generator: Adobe Illustrator 25.2.0, SVG Export Plug-In . SVG Version: 6.00 Build 0)  -->
<svg version="1.1" id="Calque_1" xmlns="http://www.w3.org/2000/svg" xmlns:xlink="http://www.w3.org/1999/xlink" x="0px" y="0px"
	 viewBox="0 0 62 62" style="enable-background:new 0 0 62 62;" xml:space="preserve">
<style type="text/css">
	.st0{fill:#FFDCD5;}
</style>
<path class="st0" d="M30.7,0.8c-9.2,0-16.8,7.5-16.8,16.8c0,9.2,7.5,16.8,16.8,16.8s16.8-7.5,16.8-16.8C47.4,8.3,39.9,0.8,30.7,0.8z
	 M29.6,4.8l-1.5,4.5l6.7-0.7l-0.7-2.2L36,6.9v2.5L39,9.6l-0.6-2.2l1.5-0.9c3.2,2.6,5.2,6.6,5.2,11.1c0,2.1-0.5,4.2-1.3,6l-3.4,0.6
	v4.1c-0.6,0.6-1.3,1.1-2.1,1.6l-1.4-2.2l-2.8,0.8l0.8,3.1c-1.4,0.4-2.8,0.6-4.2,0.6c-4,0-7.6-1.6-10.2-4.2l2.6-0.4l1.7-3.4l-5.5-2.8
	l3.9-3.3l-3.4-2.8l-3.5,1.2c0.4-4.6,2.9-8.5,6.6-10.9l0.7,5.9L29.6,4.8z M34.6,13.1L30,16l4.1,3.6l2.9-0.9l-0.3,3.5l5.4-1.4l-2-4.6
	l-3.3,0l2.9-2.5L34.6,13.1L34.6,13.1z M29.8,18.3l-2.5,1.1l1.8,1.3L29.8,18.3z M23.9,18.7l-1.7,2l4.8,3.4L23.9,18.7z M31.6,19.8
	l-1.8,3.3l4.3,2.9l-1.5-2.1l1.9-2.2L31.6,19.8z M5.5,23.3c-1.1,0-2.3,1.4-2.3,5.1c0,5.7-0.6,7.3,2.1,13.7c1.9,4.7,2.8,8.3,9,11.3
	c0.7,2.6,0.4,3.2-0.1,5.4c-0.5,2.1,4.3,2.4,7.8,0.7c3.7-2,3.4-7.7,2.8-11.5c-0.8-4.4-3.2-5.4-5.4-7.3c-2.2-3.2-2.7-8.9-6.3-11.2
	c-0.7-0.5-4.6-1,0.7,12.1C6.8,40,8.1,32.1,7.6,26.3C7.4,24.5,6.5,23.4,5.5,23.3L5.5,23.3z M55.9,23.3c-1,0-2,1.2-2.1,2.9
	c-0.5,5.9,0.8,13.8-6.1,15.5c5.2-13.1,1.4-12.6,0.7-12.1c-3.6,2.3-4.1,8-6.3,11.2c-2.1,1.9-4.6,2.8-5.4,7.3c-0.7,3.8-1,9.4,2.8,11.5
	c3.5,1.7,8.3,1.4,7.8-0.7c-0.5-2.2-0.8-2.8-0.1-5.4c6.2-2.9,7-6.6,9-11.3c2.6-6.4,2.1-8,2.1-13.7C58.2,24.8,57.1,23.3,55.9,23.3z"/>
</svg>
