<?xml version="1.0" encoding="utf-8"?>
<!-- Generator: Adobe Illustrator 25.2.0, SVG Export Plug-In . SVG Version: 6.00 Build 0)  -->
<svg version="1.1" id="Calque_1" xmlns="http://www.w3.org/2000/svg" xmlns:xlink="http://www.w3.org/1999/xlink" x="0px" y="0px"
	 viewBox="0 0 62 62" style="enable-background:new 0 0 62 62;" xml:space="preserve">
<style type="text/css">
	.st0{fill:#FFDCD5;}
</style>
<path class="st0" d="M34.5,1.6c-0.4,0-3.9,0.6-3.9,0.6c-0.2,5.3-3.8,9.9-11.4,10.7l-1.6-2.9l-3.2,0.3l1.4,7.6L1.4,17.4l1.5,5.2
	c15.5,5,14.8,19.2,11.4,32c5.9,6.7,17.9,6,23.5,5.4c0.4-7.8,6.6-8.1,17.2-4.1c1.4-2.2,2.4-4.5,5.6-6.4L54.7,32l-3.5,0.8
	c1.4-2.7,4.1-6.3,6.4-8l2-11C48.4,13,41.1,7.9,34.5,1.6z"/>
</svg>
