<svg width="69" height="69" viewBox="0 0 69 69" fill="none" xmlns="http://www.w3.org/2000/svg">
<g clip-path="url(#clip0_173_3776)">
<path d="M11.5 46C14.6756 46 17.25 43.4256 17.25 40.25C17.25 37.0744 14.6756 34.5 11.5 34.5C8.32436 34.5 5.75 37.0744 5.75 40.25C5.75 43.4256 8.32436 46 11.5 46Z" fill="#EB9936"/>
<path d="M3.5075 50.5425C2.46592 50.9877 1.57816 51.7292 0.954552 52.6748C0.330949 53.6205 -0.000988098 54.7285 2.20942e-06 55.8613V60.375H12.9375V55.7462C12.9375 53.36 13.5988 51.1175 14.7488 49.1625C13.685 48.99 12.6213 48.875 11.5 48.875C8.65375 48.875 5.95125 49.4787 3.5075 50.5425Z" fill="#EB9936"/>
<path d="M57.5 46C60.6756 46 63.25 43.4256 63.25 40.25C63.25 37.0744 60.6756 34.5 57.5 34.5C54.3244 34.5 51.75 37.0744 51.75 40.25C51.75 43.4256 54.3244 46 57.5 46Z" fill="#EB9936"/>
<path d="M65.4926 50.5425C62.9716 49.4425 60.2506 48.8748 57.5001 48.875C56.3789 48.875 55.3151 48.99 54.2514 49.1625C55.4014 51.1175 56.0626 53.36 56.0626 55.7462V60.375H69.0001V55.8613C69.0001 53.5325 67.6201 51.4625 65.4926 50.5425ZM46.6901 47.8687C43.3264 46.3737 39.1864 45.2812 34.5001 45.2812C29.8139 45.2812 25.6739 46.4025 22.3101 47.8687C20.7956 48.5523 19.5116 49.6601 18.6136 51.0582C17.7155 52.4563 17.2419 54.0846 17.2501 55.7462V60.375H51.7501V55.7462C51.7501 52.3537 49.7951 49.2487 46.6901 47.8687ZM25.8751 34.5C25.8751 39.2725 29.7276 43.125 34.5001 43.125C39.2726 43.125 43.1251 39.2725 43.1251 34.5C43.1251 29.7275 39.2726 25.875 34.5001 25.875C29.7276 25.875 25.8751 29.7275 25.8751 34.5Z" fill="#EB9936"/>
<path d="M7.13 31.2225C6.23875 29.0375 5.75 26.91 5.75 24.725C5.75 17.3075 11.5575 11.5 18.975 11.5C26.68 11.5 29.9575 16.5025 34.5 21.8213C39.0138 16.56 42.2625 11.5 50.025 11.5C57.4425 11.5 63.25 17.3075 63.25 24.725C63.25 26.91 62.7612 29.0375 61.87 31.2225C63.7388 32.1137 65.2625 33.58 66.2687 35.3625C67.9938 31.9125 69 28.405 69 24.725C69 14.0875 60.6625 5.75 50.025 5.75C44.0163 5.75 38.2663 8.53875 34.5 12.9663C30.7337 8.53875 24.9837 5.75 18.975 5.75C8.3375 5.75 0 14.0875 0 24.725C0 28.405 1.00625 31.9125 2.76 35.3625C3.76625 33.58 5.29 32.1137 7.13 31.2225Z" fill="#EB9936"/>
</g>
<defs>
<clipPath id="clip0_173_3776">
<rect width="69" height="69" fill="white"/>
</clipPath>
</defs>
</svg>
