<svg width="107" height="107" viewBox="0 0 107 107" fill="none" xmlns="http://www.w3.org/2000/svg">
<path d="M61.5928 9.17285C44.7849 9.17285 31.2316 22.3249 30.3845 38.8653L21.8245 50.1449C20.7545 51.527 21.8245 53.7562 23.697 53.7562H30.3845V67.1312C30.3845 72.0799 34.3524 76.0478 39.3011 76.0478H43.7595V89.4228H74.9678V68.5133C85.5341 63.5199 92.8011 52.8645 92.8011 40.3812C92.8011 23.172 78.8911 9.17285 61.5928 9.17285ZM79.4261 35.1649C79.4261 42.0308 73.3628 47.5145 64.1786 55.8516L61.5928 58.2145L59.007 55.8516C49.8228 47.5145 43.7595 42.0308 43.7595 35.1649C43.7595 29.8149 48.0395 25.4012 53.3895 25.3566H53.5678C56.6441 25.3566 59.5866 26.7387 61.5928 29.057C63.5991 26.7387 66.5416 25.3566 69.6178 25.3566C74.9678 25.312 79.4261 29.6366 79.4261 34.9866V35.1649Z" fill="#F26647"/>
</svg>
