<svg width="62" height="55" viewBox="0 0 62 55" fill="none" xmlns="http://www.w3.org/2000/svg">
<g clip-path="url(#clip0_173_3782)">
<path d="M17.5353 14.647C14.3899 11.4588 14.3899 6.28059 17.5353 3.09235C20.6808 -0.0958877 25.7734 -0.0958877 28.9188 3.09235L30.8125 5.01813L32.7062 3.09235C35.8516 -0.0958877 40.9443 -0.0958877 44.0897 3.09235C47.2351 6.28059 47.2351 11.4588 44.0897 14.647L33.2197 25.6882C32.5564 26.3622 31.6898 26.6939 30.8125 26.6939C29.9352 26.6939 29.0686 26.3622 28.4053 25.6882L17.5353 14.647ZM60.7905 35.9804C62.192 37.8848 61.7855 40.5595 59.8811 41.961L46.3364 51.943C43.8329 53.7832 40.8159 54.7782 37.7025 54.7782H3.42361C1.52993 54.7782 0 53.2483 0 51.3546V44.5073C0 42.6137 1.52993 41.0837 3.42361 41.0837H7.36076L12.1645 37.2322C14.5931 35.285 17.6102 34.2365 20.7235 34.2365H37.6597C39.5534 34.2365 41.0833 35.7664 41.0833 37.6601C41.0833 39.5538 39.5534 41.0837 37.6597 41.0837H29.1007C28.1592 41.0837 27.3889 41.854 27.3889 42.7955C27.3889 43.737 28.1592 44.5073 29.1007 44.5073H42.0034L54.8099 35.071C56.7143 33.6695 59.389 34.076 60.7905 35.9804Z" fill="#EB9936"/>
</g>
<defs>
<clipPath id="clip0_173_3782">
<rect width="61.625" height="54.7778" fill="white"/>
</clipPath>
</defs>
</svg>
