<svg width="82" height="82" viewBox="0 0 82 82" fill="none" xmlns="http://www.w3.org/2000/svg">
<path d="M13.6675 47.8338H21.8504C22.8549 47.8338 23.8457 48.0593 24.7443 48.4966L31.7211 51.8723C32.6197 52.3062 33.6106 52.5317 34.6185 52.5317H38.1786C41.6226 52.5317 44.4175 55.2343 44.4175 58.5689C44.4175 58.7056 44.3252 58.8218 44.192 58.8594L35.5102 61.2613C33.9524 61.6916 32.2913 61.5411 30.8362 60.8376L23.3776 57.2296M28.6871 8.71977C33.7233 5.59694 38.124 6.85427 40.7651 8.85985C41.8481 9.67985 42.3914 10.0899 42.7091 10.0899C43.0269 10.0899 43.5701 9.67985 44.6532 8.85985C47.2943 6.85427 51.6916 5.59694 56.7311 8.71977C63.3458 12.8198 64.8423 26.3361 49.5903 37.7409C46.6827 39.9139 45.2306 41.0004 42.7091 41.0004C40.1876 41.0004 38.7356 39.9139 35.8314 37.7409C20.576 26.3361 22.0725 12.8164 28.6871 8.71977Z" stroke="#EB9936" stroke-width="5.125" stroke-linecap="round" stroke-linejoin="round"/>
<path d="M44.4175 56.3751L60.1102 51.5542C61.4764 51.135 62.9401 51.1581 64.2924 51.6201C65.6447 52.0821 66.8165 52.9595 67.6406 54.127C68.9013 55.8695 68.3888 58.3705 66.5507 59.4296L40.8744 74.2477C40.0715 74.7123 39.1825 75.0085 38.2615 75.1183C37.3404 75.2281 36.4067 75.1493 35.5171 74.8866L13.6675 68.4018" stroke="#EB9936" stroke-width="5.125" stroke-linecap="round" stroke-linejoin="round"/>
</svg>
