<svg width="77" height="77" viewBox="0 0 77 77" fill="none" xmlns="http://www.w3.org/2000/svg">
<path d="M38.5 2.40625C18.5666 2.40625 2.40625 18.5666 2.40625 38.5C2.40625 58.4346 18.5666 74.5938 38.5 74.5938C58.4334 74.5938 74.5938 58.4334 74.5938 38.5C74.5938 18.5666 58.4334 2.40625 38.5 2.40625ZM67.375 38.5C67.382 44.9123 65.2456 51.1429 61.3052 56.2016L50.0608 44.9572V22.5887C50.0608 20.0777 47.9902 18.0433 45.436 18.0433H31.5616C29.2468 18.0433 27.3458 19.7204 27.0077 21.9029L20.7984 15.6948C25.8571 11.7544 32.0877 9.61795 38.5 9.625C54.4462 9.625 67.375 22.5526 67.375 38.5ZM29.2504 51.685V34.354L46.579 51.685H29.2504ZM39.886 55.3065C39.886 56.0584 39.2664 56.6696 38.5 56.6696C37.7336 56.6696 37.1128 56.0584 37.1128 55.3065C37.1128 54.5545 37.7348 53.9433 38.5 53.9433C39.2664 53.9433 39.886 54.5545 39.886 55.3065ZM29.2504 24.1455V22.5887H47.7496V42.6448L29.2504 24.1455ZM35.6594 20.2715C35.6594 19.9574 35.9181 19.7024 36.2369 19.7024H40.7607C41.0807 19.7024 41.3406 19.9574 41.3406 20.2715C41.3406 20.5855 41.0795 20.8405 40.7607 20.8405H36.2369C36.0852 20.8405 35.9396 20.7809 35.8315 20.6744C35.7235 20.5679 35.6616 20.4232 35.6594 20.2715ZM9.625 38.5C9.61822 32.0882 11.7546 25.858 15.6948 20.7996L26.9368 32.0428V54.4113C26.9368 56.9235 29.0073 58.9579 31.5616 58.9579H45.436C47.7508 58.9579 49.6518 57.2796 49.9898 55.0971L56.198 61.3052C51.1402 65.2449 44.911 67.3812 38.5 67.375C22.5526 67.375 9.625 54.4486 9.625 38.5Z" fill="#EB9936"/>
</svg>
