<svg id="Calque_2" data-name="Calque 2" xmlns="http://www.w3.org/2000/svg" viewBox="0 0 848.5 271.1">
  <g id="Calque_1-2" data-name="Calque 1-2">
    <g>
      <path d="M92.6,274c-23.7,0-73.9-6.3-78.1-25.7L2.9,25v-.5a4.1,4.1,0,0,1,4.3-4h.2l36.9-2.2.5-.2C62.7,10.9,85.9,6.7,108.3,6.7c33.5,0,60.7,8.5,78.9,24.5a69.8,69.8,0,0,1,24,53,56.9,56.9,0,0,1-1.4,13l-30.2,9.9c-6.7,2.4-10.1,6-10.1,10.7,0,3.1,1.4,6,2.4,8.1l40.7,89.4c-6.5,17.7-21.9,32.6-44.5,43.2S119.9,274,92.6,274ZM103,165.7a126.5,126.5,0,0,0-17,1l-2.7.3,2.8,53.8,2.3.3a85.9,85.9,0,0,0,13,1c25.8,0,43.1-11.5,43.1-28.7,0-10.3-5.4-27.7-41.5-27.7ZM98.6,60.8a83.2,83.2,0,0,0-18.2,2l-2.4.5,3.1,60.6H84c15.2-.6,55.8-2.3,55.8-32.1,0-14.3-10.8-30.9-41.2-30.9Z" transform="translate(-2.9 -2.9)"/>
      <path d="M252.8,270.6c-5.8,0-9.5-2.1-11.5-6.5L177.2,123.4c-.8-1.7-1.9-3.8-1.9-5.6s2.1-3.7,6.2-5.1l45.8-15.1a19.9,19.9,0,0,1,4.8-.8c2.8,0,4.8,1.2,5.8,3.3l32,67.6c1.3,2.7,3.2,3.2,4.5,3.2s4.3-2.1,4.8-5.2v-.2c.9-7.4,2-20.2,2.8-28.8.3-3.6.6-6.5.7-7.3.4-4.7,1.7-6.2,8.9-6.8l36-1.6h1.5c3.4,0,5,1,6.3,4.2l8.1,37.6v.2c.9,2.7,2.4,4.2,4.3,4.2s3.6-2.1,5.8-11.9,5.3-24.4,12.8-60.8c.9-4.1,2.7-4.9,5.6-4.9a41.7,41.7,0,0,1,8.2,1.2l9.9,2V244.7c-6.7,13-13.6,19.6-21.1,19.9l-23.8,1.3h-2.1c-4.3,0-6.3-1-8.1-3.9s-14.4-37-19.9-52c-.9-2.4-2.1-5-4.6-5s-3.6,2.9-4,4.7c0,.2-.1.4-.1.6-3.7,16.5-10.2,45.2-12.5,52.9v.2c-.6,2.4-4.5,5.4-8.6,5.6l-31,1.6Z" transform="translate(-2.9 -2.9)"/>
      <path d="M570.1,272.5a75.5,75.5,0,0,1-29.3-13.3c-18.1-13.5-27.3-33-27.3-58.2,0-47.4-27-54.5-43.1-54.5h-4.5v117a3.4,3.4,0,0,1-3.4,3.6H399.7a3.5,3.5,0,0,1-3.6-3.6V6.6a3.7,3.7,0,0,1,3.6-3.7h62.8a3.7,3.7,0,0,1,3.4,3.7V91.4l3.2-.2a96.6,96.6,0,0,1,10.7-.4c36.3,0,67.4,13.8,85.7,37.7-8.6,15.2-13.6,33.3-13.6,49.9,0,30.5,16.1,58.9,43.2,76.5l-17.6,14.5a12.5,12.5,0,0,1-7.4,3.1Z" transform="translate(-2.9 -2.9)"/>
      <path d="M742.6,273.7c-1.8,0-23.3-4.4-38.8-19l-1.5-1.4-1.9,1a104.5,104.5,0,0,1-47.9,11.9,99.4,99.4,0,0,1-51-14.1c-27.4-16.4-43.7-44-43.7-73.8,0-16.1,5-33.8,13.7-48.5,15.6-26.1,41.2-40.5,72.2-40.5a107.7,107.7,0,0,1,42.1,8.5l2,.9,1.4-1.7c.8-.9,2.3-2.1,6.3-2.1h1.4l22.3,1.9-3.7,51h0a10,10,0,0,0,8.9,9.8l21,1.1c1,40.2,6.3,66.3,17.2,83.9L750,267.1c-3,5.9-5.6,6.6-7.4,6.6ZM658.1,141.2c-20.8,0-33.7,19.8-33.7,38.1,0,20.6,15,35.6,35.6,35.6a52.9,52.9,0,0,0,21.3-4.7l2-.8-.3-2.2a235.9,235.9,0,0,1-1.5-26.3c0-8,.3-16.5.9-25.9v-.9l-.5-.8c-4.3-7.2-13.9-12.1-23.9-12.1Z" transform="translate(-2.9 -2.9)"/>
      <path d="M820.8,270.6a5.3,5.3,0,0,1-1.9-.2h-.4c-24.6-4.9-40.1-13.9-50.1-29.4-11.1-17-16.4-43.2-17.2-84.9v-2.7l-26.2-1.4a4.2,4.2,0,0,1-3.5-3.9l3.7-52a2.9,2.9,0,0,1,.2-.9,4,4,0,0,1,3.7-2.7l23,1.4.4-8.3c.6-10.5,1.1-21.4,1.9-32.9.4-4.2,1-7,6.2-7h1.2L821,48.4c3.6.3,5,1.9,5,5.8-.6,13.2-1.5,27.1-2.5,40.1l-.2,2.9L848,98.7h.1c1.8,0,3.3,1.7,3.4,3.9l-3.8,52a3.5,3.5,0,0,1-3.3,3.2h-.6l-23.7-1v3c0,23.5,2.2,51.5,19.3,58.9l1.1.5c2.6,1.1,4.4,2,4.4,3.1a8.6,8.6,0,0,1-.5,1.5l-16.3,39.5c-2.5,6-4.7,7.3-7.3,7.3Z" transform="translate(-2.9 -2.9)"/>
    </g>
  </g>
</svg>
